<mxfile host="Electron" agent="Mozilla/5.0 (X11; Linux x86_64) AppleWebKit/537.36 (KHTML, like Gecko) draw.io/27.0.9 Chrome/134.0.6998.205 Electron/35.4.0 Safari/537.36" version="27.0.9">
  <diagram name="Seite-1" id="aQug8RWQijGhIESzmx0J">
    <mxGraphModel dx="840" dy="551" grid="1" gridSize="10" guides="1" tooltips="1" connect="1" arrows="1" fold="1" page="1" pageScale="1" pageWidth="827" pageHeight="1169" math="0" shadow="0">
      <root>
        <mxCell id="0" />
        <mxCell id="1" parent="0" />
        <mxCell id="p7Ppg2QMNpSRHjjuMmNo-1" value="" style="rounded=0;whiteSpace=wrap;html=1;fillColor=#00CC00;strokeColor=#547442;fillOpacity=30;" parent="1" vertex="1">
          <mxGeometry x="40" y="380" width="160" height="40" as="geometry" />
        </mxCell>
        <mxCell id="p7Ppg2QMNpSRHjjuMmNo-2" value="" style="rounded=0;whiteSpace=wrap;html=1;fillColor=#2734DC;strokeColor=#6c8ebf;fillOpacity=30;" parent="1" vertex="1">
          <mxGeometry x="160" y="380" width="160" height="40" as="geometry" />
        </mxCell>
        <mxCell id="p7Ppg2QMNpSRHjjuMmNo-5" value="" style="endArrow=none;html=1;rounded=0;exitX=0;exitY=1;exitDx=0;exitDy=0;fillColor=#d5e8d4;strokeColor=#547442;entryX=0.25;entryY=0;entryDx=0;entryDy=0;" parent="1" source="p7Ppg2QMNpSRHjjuMmNo-1" target="p7Ppg2QMNpSRHjjuMmNo-2" edge="1">
          <mxGeometry width="50" height="50" relative="1" as="geometry">
            <mxPoint x="150" y="460" as="sourcePoint" />
            <mxPoint x="168" y="388" as="targetPoint" />
          </mxGeometry>
        </mxCell>
        <mxCell id="p7Ppg2QMNpSRHjjuMmNo-6" value="" style="endArrow=none;html=1;rounded=0;entryX=1;entryY=0;entryDx=0;entryDy=0;fillColor=#dae8fc;strokeColor=#6c8ebf;exitX=0;exitY=1;exitDx=0;exitDy=0;" parent="1" source="p7Ppg2QMNpSRHjjuMmNo-2" edge="1">
          <mxGeometry width="50" height="50" relative="1" as="geometry">
            <mxPoint x="227" y="403" as="sourcePoint" />
            <mxPoint x="320" y="380" as="targetPoint" />
          </mxGeometry>
        </mxCell>
        <mxCell id="p7Ppg2QMNpSRHjjuMmNo-27" value="" style="endArrow=none;dashed=1;html=1;dashPattern=1 1;strokeWidth=1;rounded=0;exitX=0;exitY=0.5;exitDx=0;exitDy=0;entryX=1;entryY=0.5;entryDx=0;entryDy=0;strokeColor=#000000;opacity=50;" parent="1" edge="1">
          <mxGeometry width="50" height="50" relative="1" as="geometry">
            <mxPoint x="40" y="400" as="sourcePoint" />
            <mxPoint x="320" y="400" as="targetPoint" />
          </mxGeometry>
        </mxCell>
        <mxCell id="p7Ppg2QMNpSRHjjuMmNo-30" value="" style="endArrow=none;html=1;rounded=0;exitX=1;exitY=0.25;exitDx=0;exitDy=0;strokeColor=#FFFFFF;" parent="1" edge="1">
          <mxGeometry width="50" height="50" relative="1" as="geometry">
            <mxPoint x="180" y="385" as="sourcePoint" />
            <mxPoint x="240" y="400" as="targetPoint" />
          </mxGeometry>
        </mxCell>
        <mxCell id="p7Ppg2QMNpSRHjjuMmNo-31" value="Appearance: a" style="rounded=0;whiteSpace=wrap;html=1;fillColor=#00CC00;strokeColor=#547442;fillOpacity=30;verticalAlign=top;align=left;spacing=0;spacingTop=-13;fontSize=6;fontColor=#547442;" parent="1" vertex="1">
          <mxGeometry x="40" y="100" width="160" height="40" as="geometry" />
        </mxCell>
        <mxCell id="p7Ppg2QMNpSRHjjuMmNo-32" value="Appearence: b" style="rounded=0;whiteSpace=wrap;html=1;fillColor=#2734DC;strokeColor=#6c8ebf;fillOpacity=30;fontSize=6;align=right;verticalAlign=top;spacing=0;spacingTop=-13;fontColor=#0066CC;" parent="1" vertex="1">
          <mxGeometry x="80" y="100" width="160" height="40" as="geometry" />
        </mxCell>
        <mxCell id="p7Ppg2QMNpSRHjjuMmNo-36" value="" style="endArrow=none;dashed=1;html=1;dashPattern=1 1;strokeWidth=1;rounded=0;exitX=0;exitY=0.5;exitDx=0;exitDy=0;entryX=1;entryY=0.5;entryDx=0;entryDy=0;strokeColor=#000000;opacity=50;" parent="1" target="p7Ppg2QMNpSRHjjuMmNo-32" edge="1">
          <mxGeometry width="50" height="50" relative="1" as="geometry">
            <mxPoint x="40" y="120" as="sourcePoint" />
            <mxPoint x="320" y="120" as="targetPoint" />
          </mxGeometry>
        </mxCell>
        <mxCell id="p7Ppg2QMNpSRHjjuMmNo-43" value="&lt;h1 style=&quot;margin-top: 0px;&quot;&gt;Procedure&lt;/h1&gt;&lt;p&gt;- new Appearance c:&lt;br&gt;&amp;nbsp; start=a.start, end=b.end&lt;/p&gt;&lt;p&gt;&lt;span style=&quot;background-color: transparent; color: light-dark(rgb(0, 0, 0), rgb(255, 255, 255));&quot;&gt;- d_end = b.end - a.end&lt;br&gt;- c.width = a.width + d_end&lt;br&gt;&lt;/span&gt;&lt;span style=&quot;background-color: transparent; color: light-dark(rgb(0, 0, 0), rgb(255, 255, 255));&quot;&gt;- link_width = 0.5 * d_end&lt;br&gt;- link_start =&amp;nbsp;&lt;/span&gt;&lt;span style=&quot;background-color: transparent; color: light-dark(rgb(0, 0, 0), rgb(255, 255, 255));&quot;&gt;(a.end + b.start) / 2 &lt;i&gt;# center of overlap&lt;/i&gt;&lt;br&gt;- link_end =&amp;nbsp;&lt;/span&gt;&lt;span style=&quot;background-color: transparent; color: light-dark(rgb(0, 0, 0), rgb(255, 255, 255));&quot;&gt;(b.start + b.end) / 2) &lt;i&gt;# b center&lt;/i&gt;&lt;br&gt;&lt;/span&gt;&lt;span style=&quot;background-color: transparent; color: light-dark(rgb(0, 0, 0), rgb(255, 255, 255));&quot;&gt;&lt;br&gt;&lt;/span&gt;&lt;/p&gt;&lt;p&gt;&lt;span style=&quot;background-color: transparent; color: light-dark(rgb(0, 0, 0), rgb(255, 255, 255));&quot;&gt;- copy bp from a&lt;/span&gt;&lt;/p&gt;&lt;p&gt;&lt;span style=&quot;background-color: transparent; color: light-dark(rgb(0, 0, 0), rgb(255, 255, 255));&quot;&gt;&lt;br&gt;&lt;br&gt;delete last; bp(c.width, 1)&lt;br&gt;&lt;br&gt;&lt;br&gt;&lt;/span&gt;&lt;span style=&quot;background-color: transparent; color: light-dark(rgb(0, 0, 0), rgb(255, 255, 255));&quot;&gt;&lt;/span&gt;&lt;/p&gt;&lt;p&gt;&lt;span style=&quot;background-color: transparent; color: light-dark(rgb(0, 0, 0), rgb(255, 255, 255));&quot;&gt;- bp(link_start, f(a, link_start))&lt;/span&gt;&lt;/p&gt;&lt;p&gt;&lt;span style=&quot;background-color: transparent; color: light-dark(rgb(0, 0, 0), rgb(255, 255, 255));&quot;&gt;&lt;br&gt;&lt;br&gt;- bp(link_end, f(b, (link_end-d_end)))&lt;/span&gt;&lt;/p&gt;" style="text;html=1;whiteSpace=wrap;overflow=hidden;rounded=0;" parent="1" vertex="1">
          <mxGeometry x="360" y="160" width="280" height="390" as="geometry" />
        </mxCell>
        <mxCell id="p7Ppg2QMNpSRHjjuMmNo-46" value="d_end" style="endArrow=classic;startArrow=classic;html=1;rounded=0;startSize=2;endSize=2;fillColor=#e1d5e7;strokeColor=#9673a6;fontSize=5;labelBackgroundColor=none;" parent="1" edge="1">
          <mxGeometry y="-3" width="50" height="50" relative="1" as="geometry">
            <mxPoint x="200" y="204" as="sourcePoint" />
            <mxPoint x="240" y="204" as="targetPoint" />
            <mxPoint as="offset" />
          </mxGeometry>
        </mxCell>
        <mxCell id="p7Ppg2QMNpSRHjjuMmNo-55" value="" style="rounded=0;whiteSpace=wrap;html=1;fillColor=#1E28A9;strokeColor=#6c8ebf;fillOpacity=30;" parent="1" vertex="1">
          <mxGeometry x="180" y="540" width="160" height="40" as="geometry" />
        </mxCell>
        <mxCell id="p7Ppg2QMNpSRHjjuMmNo-65" value="env_A" style="endArrow=none;html=1;rounded=0;exitX=0;exitY=1;exitDx=0;exitDy=0;fillColor=#d5e8d4;strokeColor=#547442;labelBackgroundColor=none;fontColor=#547442;flowAnimation=0;shadow=0;fontSize=5;" parent="1" source="p7Ppg2QMNpSRHjjuMmNo-31" edge="1">
          <mxGeometry x="0.2647" y="5" width="50" height="50" relative="1" as="geometry">
            <mxPoint x="120" y="120" as="sourcePoint" />
            <mxPoint x="200" y="100" as="targetPoint" />
            <mxPoint as="offset" />
          </mxGeometry>
        </mxCell>
        <mxCell id="p7Ppg2QMNpSRHjjuMmNo-66" value="env_B" style="endArrow=none;html=1;rounded=0;fillColor=#dae8fc;strokeColor=#6c8ebf;exitX=0;exitY=1;exitDx=0;exitDy=0;labelBackgroundColor=none;fontColor=#1E28A9;fontSize=5;" parent="1" source="p7Ppg2QMNpSRHjjuMmNo-32" edge="1">
          <mxGeometry x="-0.1853" y="-3" width="50" height="50" relative="1" as="geometry">
            <mxPoint x="160" y="120" as="sourcePoint" />
            <mxPoint x="240" y="100" as="targetPoint" />
            <mxPoint as="offset" />
          </mxGeometry>
        </mxCell>
        <mxCell id="p7Ppg2QMNpSRHjjuMmNo-67" value="" style="rounded=0;whiteSpace=wrap;html=1;fillColor=#00CC00;strokeColor=#547442;fillOpacity=30;verticalAlign=top;align=left;spacing=0;spacingTop=-13;fontSize=6;fontColor=#547442;" parent="1" vertex="1">
          <mxGeometry x="40" y="160" width="160" height="40" as="geometry" />
        </mxCell>
        <mxCell id="p7Ppg2QMNpSRHjjuMmNo-68" value="" style="rounded=0;whiteSpace=wrap;html=1;fillColor=#2734DC;strokeColor=#6c8ebf;fillOpacity=30;fontSize=6;align=right;verticalAlign=top;spacing=0;spacingTop=-13;fontColor=#0066CC;" parent="1" vertex="1">
          <mxGeometry x="80" y="160" width="160" height="40" as="geometry" />
        </mxCell>
        <mxCell id="p7Ppg2QMNpSRHjjuMmNo-70" value="env_B" style="endArrow=none;html=1;rounded=0;fillColor=#dae8fc;strokeColor=#6c8ebf;exitX=0;exitY=1;exitDx=0;exitDy=0;labelBackgroundColor=none;fontColor=#1E28A9;fontSize=5;endFill=1;endSize=4;entryX=1;entryY=0;entryDx=0;entryDy=0;startFill=0;" parent="1" source="p7Ppg2QMNpSRHjjuMmNo-68" target="p7Ppg2QMNpSRHjjuMmNo-68" edge="1">
          <mxGeometry x="0.7382" y="-4" width="50" height="50" relative="1" as="geometry">
            <mxPoint x="209" y="168" as="sourcePoint" />
            <mxPoint x="160" y="180" as="targetPoint" />
            <mxPoint as="offset" />
          </mxGeometry>
        </mxCell>
        <mxCell id="p7Ppg2QMNpSRHjjuMmNo-71" value="" style="endArrow=none;dashed=1;html=1;dashPattern=1 1;strokeWidth=1;rounded=0;exitX=0;exitY=0.5;exitDx=0;exitDy=0;entryX=1;entryY=0.5;entryDx=0;entryDy=0;strokeColor=#000000;opacity=50;" parent="1" target="p7Ppg2QMNpSRHjjuMmNo-68" edge="1">
          <mxGeometry width="50" height="50" relative="1" as="geometry">
            <mxPoint x="40" y="180" as="sourcePoint" />
            <mxPoint x="320" y="180" as="targetPoint" />
          </mxGeometry>
        </mxCell>
        <mxCell id="p7Ppg2QMNpSRHjjuMmNo-72" value="env_A" style="endArrow=none;html=1;rounded=0;exitX=0;exitY=1;exitDx=0;exitDy=0;fillColor=#d5e8d4;strokeColor=#547442;labelBackgroundColor=none;fontColor=#547442;flowAnimation=0;shadow=0;fontSize=5;endFill=1;endSize=4;entryX=0.75;entryY=0;entryDx=0;entryDy=0;startFill=0;" parent="1" source="p7Ppg2QMNpSRHjjuMmNo-67" target="p7Ppg2QMNpSRHjjuMmNo-68" edge="1">
          <mxGeometry x="-0.7" y="4" width="50" height="50" relative="1" as="geometry">
            <mxPoint x="120" y="180" as="sourcePoint" />
            <mxPoint x="170" y="150" as="targetPoint" />
            <mxPoint as="offset" />
          </mxGeometry>
        </mxCell>
        <mxCell id="p7Ppg2QMNpSRHjjuMmNo-74" value="" style="endArrow=none;html=1;rounded=0;strokeColor=#FFFFFF;" parent="1" edge="1">
          <mxGeometry width="50" height="50" relative="1" as="geometry">
            <mxPoint x="140" y="175" as="sourcePoint" />
            <mxPoint x="160" y="180" as="targetPoint" />
          </mxGeometry>
        </mxCell>
        <mxCell id="p7Ppg2QMNpSRHjjuMmNo-75" value="Appearance: a" style="rounded=0;whiteSpace=wrap;html=1;fillColor=#00CC00;strokeColor=#547442;fillOpacity=30;verticalAlign=top;align=left;spacing=0;spacingTop=-13;fontSize=6;fontColor=#547442;" parent="1" vertex="1">
          <mxGeometry x="40" y="320" width="160" height="40" as="geometry" />
        </mxCell>
        <mxCell id="p7Ppg2QMNpSRHjjuMmNo-76" value="Appearence: b" style="rounded=0;whiteSpace=wrap;html=1;fillColor=#2734DC;strokeColor=#6c8ebf;fillOpacity=30;fontSize=6;align=right;verticalAlign=top;spacing=0;spacingTop=-13;fontColor=#0066CC;" parent="1" vertex="1">
          <mxGeometry x="160" y="320" width="160" height="40" as="geometry" />
        </mxCell>
        <mxCell id="p7Ppg2QMNpSRHjjuMmNo-79" value="" style="endArrow=none;dashed=1;html=1;dashPattern=1 1;strokeWidth=1;rounded=0;exitX=0;exitY=0.5;exitDx=0;exitDy=0;entryX=1;entryY=0.5;entryDx=0;entryDy=0;strokeColor=#000000;opacity=50;" parent="1" source="p7Ppg2QMNpSRHjjuMmNo-75" target="p7Ppg2QMNpSRHjjuMmNo-76" edge="1">
          <mxGeometry width="50" height="50" relative="1" as="geometry">
            <mxPoint x="120" y="340" as="sourcePoint" />
            <mxPoint x="400" y="340" as="targetPoint" />
          </mxGeometry>
        </mxCell>
        <mxCell id="p7Ppg2QMNpSRHjjuMmNo-80" value="env_A" style="endArrow=none;html=1;rounded=0;exitX=0;exitY=1;exitDx=0;exitDy=0;fillColor=#d5e8d4;strokeColor=#547442;labelBackgroundColor=none;fontColor=#547442;flowAnimation=0;shadow=0;fontSize=5;" parent="1" source="p7Ppg2QMNpSRHjjuMmNo-75" edge="1">
          <mxGeometry x="-0.6235" y="4" width="50" height="50" relative="1" as="geometry">
            <mxPoint x="120" y="340" as="sourcePoint" />
            <mxPoint x="200" y="320" as="targetPoint" />
            <mxPoint as="offset" />
          </mxGeometry>
        </mxCell>
        <mxCell id="p7Ppg2QMNpSRHjjuMmNo-82" value="env_B" style="endArrow=none;html=1;rounded=0;fillColor=#dae8fc;strokeColor=#6c8ebf;labelBackgroundColor=none;fontColor=#1E28A9;fontSize=5;startArrow=none;startFill=0;endSize=6;startSize=4;entryX=1;entryY=0;entryDx=0;entryDy=0;" parent="1" target="p7Ppg2QMNpSRHjjuMmNo-76" edge="1">
          <mxGeometry x="0.4353" y="-2" width="50" height="50" relative="1" as="geometry">
            <mxPoint x="160" y="360" as="sourcePoint" />
            <mxPoint x="240" y="340" as="targetPoint" />
            <mxPoint as="offset" />
          </mxGeometry>
        </mxCell>
        <mxCell id="p7Ppg2QMNpSRHjjuMmNo-87" value="" style="endArrow=classic;html=1;rounded=0;entryX=0.75;entryY=0;entryDx=0;entryDy=0;endSize=2;labelBackgroundColor=none;fontSize=5;" parent="1" edge="1">
          <mxGeometry x="-0.6" y="16" width="50" height="50" relative="1" as="geometry">
            <mxPoint x="140" y="164" as="sourcePoint" />
            <mxPoint x="140.0000000000001" y="173.99999999999994" as="targetPoint" />
            <mxPoint as="offset" />
          </mxGeometry>
        </mxCell>
        <mxCell id="p7Ppg2QMNpSRHjjuMmNo-88" value="" style="endArrow=classic;html=1;rounded=0;entryX=0.75;entryY=0;entryDx=0;entryDy=0;endSize=2;labelBackgroundColor=none;fontSize=5;" parent="1" edge="1">
          <mxGeometry x="-0.6" y="16" width="50" height="50" relative="1" as="geometry">
            <mxPoint x="159.86" y="190" as="sourcePoint" />
            <mxPoint x="159.86000000000013" y="179.99999999999994" as="targetPoint" />
            <mxPoint as="offset" />
          </mxGeometry>
        </mxCell>
        <mxCell id="p7Ppg2QMNpSRHjjuMmNo-90" value="" style="rounded=0;whiteSpace=wrap;html=1;fillColor=#00CC00;strokeColor=#547442;fillOpacity=30;" parent="1" vertex="1">
          <mxGeometry x="40" y="540" width="280" height="40" as="geometry" />
        </mxCell>
        <mxCell id="p7Ppg2QMNpSRHjjuMmNo-91" value="" style="endArrow=none;html=1;rounded=0;exitX=0;exitY=1;exitDx=0;exitDy=0;fillColor=#d5e8d4;strokeColor=#547442;" parent="1" edge="1">
          <mxGeometry width="50" height="50" relative="1" as="geometry">
            <mxPoint x="40" y="580" as="sourcePoint" />
            <mxPoint x="151" y="552" as="targetPoint" />
          </mxGeometry>
        </mxCell>
        <mxCell id="p7Ppg2QMNpSRHjjuMmNo-92" value="" style="endArrow=none;html=1;rounded=0;entryX=1;entryY=0;entryDx=0;entryDy=0;fillColor=#dae8fc;strokeColor=#547442;" parent="1" edge="1">
          <mxGeometry width="50" height="50" relative="1" as="geometry">
            <mxPoint x="210" y="568" as="sourcePoint" />
            <mxPoint x="320" y="540" as="targetPoint" />
          </mxGeometry>
        </mxCell>
        <mxCell id="p7Ppg2QMNpSRHjjuMmNo-93" value="" style="endArrow=none;dashed=1;html=1;dashPattern=1 1;strokeWidth=1;rounded=0;exitX=0;exitY=0.5;exitDx=0;exitDy=0;entryX=1;entryY=0.5;entryDx=0;entryDy=0;strokeColor=#000000;opacity=50;" parent="1" edge="1">
          <mxGeometry width="50" height="50" relative="1" as="geometry">
            <mxPoint x="40" y="560" as="sourcePoint" />
            <mxPoint x="320" y="560" as="targetPoint" />
          </mxGeometry>
        </mxCell>
        <mxCell id="p7Ppg2QMNpSRHjjuMmNo-94" value="" style="endArrow=none;html=1;rounded=0;exitX=1;exitY=0.25;exitDx=0;exitDy=0;strokeColor=#547442;" parent="1" edge="1">
          <mxGeometry width="50" height="50" relative="1" as="geometry">
            <mxPoint x="150" y="552.5" as="sourcePoint" />
            <mxPoint x="210" y="567.5" as="targetPoint" />
          </mxGeometry>
        </mxCell>
        <mxCell id="p7Ppg2QMNpSRHjjuMmNo-56" value="" style="endArrow=none;html=1;rounded=0;entryX=1;entryY=0;entryDx=0;entryDy=0;fillColor=#dae8fc;strokeColor=#6c8ebf;exitX=0;exitY=1;exitDx=0;exitDy=0;" parent="1" source="p7Ppg2QMNpSRHjjuMmNo-55" target="p7Ppg2QMNpSRHjjuMmNo-55" edge="1">
          <mxGeometry width="50" height="50" relative="1" as="geometry">
            <mxPoint x="247" y="563" as="sourcePoint" />
            <mxPoint x="340" y="540" as="targetPoint" />
          </mxGeometry>
        </mxCell>
        <mxCell id="p7Ppg2QMNpSRHjjuMmNo-95" value="" style="endArrow=none;html=1;rounded=0;strokeColor=#FFFFFF;strokeWidth=1;" parent="1" edge="1">
          <mxGeometry width="50" height="50" relative="1" as="geometry">
            <mxPoint x="250" y="558" as="sourcePoint" />
            <mxPoint x="260" y="560" as="targetPoint" />
          </mxGeometry>
        </mxCell>
        <mxCell id="lZcb2U4ELOc24G8h8Ucq-1" value="Appearance: a" style="rounded=0;whiteSpace=wrap;html=1;fillColor=#00CC00;strokeColor=#547442;fillOpacity=30;verticalAlign=top;align=left;spacing=0;spacingTop=-13;fontSize=6;fontColor=#547442;" vertex="1" parent="1">
          <mxGeometry x="40" y="440" width="160" height="40" as="geometry" />
        </mxCell>
        <mxCell id="lZcb2U4ELOc24G8h8Ucq-2" value="" style="endArrow=none;html=1;rounded=0;exitX=0;exitY=1;exitDx=0;exitDy=0;fillColor=#d5e8d4;strokeColor=#547442;labelBackgroundColor=none;fontColor=#547442;flowAnimation=0;shadow=0;fontSize=5;entryX=0.5;entryY=0;entryDx=0;entryDy=0;" edge="1" source="lZcb2U4ELOc24G8h8Ucq-1" parent="1" target="lZcb2U4ELOc24G8h8Ucq-1">
          <mxGeometry x="0.2647" y="5" width="50" height="50" relative="1" as="geometry">
            <mxPoint x="120" y="460" as="sourcePoint" />
            <mxPoint x="200" y="440" as="targetPoint" />
            <mxPoint as="offset" />
          </mxGeometry>
        </mxCell>
        <mxCell id="lZcb2U4ELOc24G8h8Ucq-3" value="" style="endArrow=none;html=1;rounded=0;exitX=0.5;exitY=0;exitDx=0;exitDy=0;fillColor=#d5e8d4;strokeColor=#547442;labelBackgroundColor=none;fontColor=#547442;flowAnimation=0;shadow=0;fontSize=5;" edge="1" parent="1" source="lZcb2U4ELOc24G8h8Ucq-1">
          <mxGeometry x="0.2647" y="5" width="50" height="50" relative="1" as="geometry">
            <mxPoint x="110" y="490" as="sourcePoint" />
            <mxPoint x="180" y="470" as="targetPoint" />
            <mxPoint as="offset" />
          </mxGeometry>
        </mxCell>
        <mxCell id="lZcb2U4ELOc24G8h8Ucq-4" value="Appearance: b" style="rounded=0;whiteSpace=wrap;html=1;fillColor=#dae8fc;strokeColor=#6c8ebf;fillOpacity=30;verticalAlign=top;align=right;spacing=0;spacingTop=-13;fontSize=6;fontColor=#0066CC;" vertex="1" parent="1">
          <mxGeometry x="160" y="440" width="160" height="40" as="geometry" />
        </mxCell>
        <mxCell id="lZcb2U4ELOc24G8h8Ucq-5" value="" style="endArrow=none;html=1;rounded=0;fillColor=#dae8fc;strokeColor=#6c8ebf;labelBackgroundColor=none;fontColor=#547442;flowAnimation=0;shadow=0;fontSize=5;entryX=0.5;entryY=0;entryDx=0;entryDy=0;" edge="1" target="lZcb2U4ELOc24G8h8Ucq-4" parent="1">
          <mxGeometry x="0.2647" y="5" width="50" height="50" relative="1" as="geometry">
            <mxPoint x="180" y="470" as="sourcePoint" />
            <mxPoint x="320" y="440" as="targetPoint" />
            <mxPoint as="offset" />
          </mxGeometry>
        </mxCell>
        <mxCell id="lZcb2U4ELOc24G8h8Ucq-6" value="" style="endArrow=none;html=1;rounded=0;exitX=0.5;exitY=0;exitDx=0;exitDy=0;fillColor=#dae8fc;strokeColor=#6c8ebf;labelBackgroundColor=none;fontColor=#547442;flowAnimation=0;shadow=0;fontSize=5;entryX=1;entryY=1;entryDx=0;entryDy=0;" edge="1" source="lZcb2U4ELOc24G8h8Ucq-4" target="lZcb2U4ELOc24G8h8Ucq-4" parent="1">
          <mxGeometry x="0.2647" y="5" width="50" height="50" relative="1" as="geometry">
            <mxPoint x="230" y="490" as="sourcePoint" />
            <mxPoint x="310" y="450" as="targetPoint" />
            <mxPoint as="offset" />
          </mxGeometry>
        </mxCell>
        <mxCell id="lZcb2U4ELOc24G8h8Ucq-7" value="Appearance: a" style="rounded=0;whiteSpace=wrap;html=1;fillColor=#00CC00;strokeColor=#547442;fillOpacity=30;verticalAlign=top;align=left;spacing=0;spacingTop=-13;fontSize=6;fontColor=#547442;" vertex="1" parent="1">
          <mxGeometry x="40" y="600" width="160" height="40" as="geometry" />
        </mxCell>
        <mxCell id="lZcb2U4ELOc24G8h8Ucq-8" value="" style="endArrow=none;html=1;rounded=0;exitX=0;exitY=1;exitDx=0;exitDy=0;fillColor=#d5e8d4;strokeColor=#547442;labelBackgroundColor=none;fontColor=#547442;flowAnimation=0;shadow=0;fontSize=5;entryX=0.5;entryY=0;entryDx=0;entryDy=0;" edge="1" source="lZcb2U4ELOc24G8h8Ucq-7" target="lZcb2U4ELOc24G8h8Ucq-7" parent="1">
          <mxGeometry x="0.2647" y="5" width="50" height="50" relative="1" as="geometry">
            <mxPoint x="120" y="620" as="sourcePoint" />
            <mxPoint x="200" y="600" as="targetPoint" />
            <mxPoint as="offset" />
          </mxGeometry>
        </mxCell>
        <mxCell id="lZcb2U4ELOc24G8h8Ucq-9" value="" style="endArrow=none;html=1;rounded=0;exitX=0.5;exitY=0;exitDx=0;exitDy=0;fillColor=#d5e8d4;strokeColor=#547442;labelBackgroundColor=none;fontColor=#547442;flowAnimation=0;shadow=0;fontSize=5;" edge="1" source="lZcb2U4ELOc24G8h8Ucq-7" parent="1">
          <mxGeometry x="0.2647" y="5" width="50" height="50" relative="1" as="geometry">
            <mxPoint x="110" y="650" as="sourcePoint" />
            <mxPoint x="180" y="630" as="targetPoint" />
            <mxPoint as="offset" />
          </mxGeometry>
        </mxCell>
        <mxCell id="lZcb2U4ELOc24G8h8Ucq-10" value="Appearance: a" style="rounded=0;whiteSpace=wrap;html=1;fillColor=#dae8fc;strokeColor=#6c8ebf;fillOpacity=30;verticalAlign=top;align=left;spacing=0;spacingTop=-13;fontSize=6;" vertex="1" parent="1">
          <mxGeometry x="160" y="600" width="160" height="40" as="geometry" />
        </mxCell>
        <mxCell id="lZcb2U4ELOc24G8h8Ucq-11" value="" style="endArrow=none;html=1;rounded=0;fillColor=#dae8fc;strokeColor=#6c8ebf;labelBackgroundColor=none;fontColor=#547442;flowAnimation=0;shadow=0;fontSize=5;entryX=0.5;entryY=0;entryDx=0;entryDy=0;" edge="1" target="lZcb2U4ELOc24G8h8Ucq-10" parent="1">
          <mxGeometry x="0.2647" y="5" width="50" height="50" relative="1" as="geometry">
            <mxPoint x="180" y="630" as="sourcePoint" />
            <mxPoint x="320" y="600" as="targetPoint" />
            <mxPoint as="offset" />
          </mxGeometry>
        </mxCell>
        <mxCell id="lZcb2U4ELOc24G8h8Ucq-12" value="" style="endArrow=none;html=1;rounded=0;exitX=0.5;exitY=0;exitDx=0;exitDy=0;fillColor=#dae8fc;strokeColor=#6c8ebf;labelBackgroundColor=none;fontColor=#547442;flowAnimation=0;shadow=0;fontSize=5;" edge="1" source="lZcb2U4ELOc24G8h8Ucq-10" parent="1">
          <mxGeometry x="0.2647" y="5" width="50" height="50" relative="1" as="geometry">
            <mxPoint x="230" y="650" as="sourcePoint" />
            <mxPoint x="250" y="605" as="targetPoint" />
            <mxPoint as="offset" />
          </mxGeometry>
        </mxCell>
        <mxCell id="lZcb2U4ELOc24G8h8Ucq-13" value="" style="rounded=0;whiteSpace=wrap;html=1;fillColor=#1E28A9;strokeColor=#6c8ebf;fillOpacity=30;" vertex="1" parent="1">
          <mxGeometry x="180" y="600" width="160" height="40" as="geometry" />
        </mxCell>
        <mxCell id="lZcb2U4ELOc24G8h8Ucq-14" value="" style="endArrow=none;html=1;rounded=0;entryX=1;entryY=1;entryDx=0;entryDy=0;fillColor=#dae8fc;strokeColor=#6c8ebf;exitX=0.5;exitY=0;exitDx=0;exitDy=0;" edge="1" source="lZcb2U4ELOc24G8h8Ucq-13" target="lZcb2U4ELOc24G8h8Ucq-13" parent="1">
          <mxGeometry width="50" height="50" relative="1" as="geometry">
            <mxPoint x="247" y="623" as="sourcePoint" />
            <mxPoint x="340" y="600" as="targetPoint" />
          </mxGeometry>
        </mxCell>
        <mxCell id="lZcb2U4ELOc24G8h8Ucq-15" value="" style="endArrow=none;html=1;rounded=0;fillColor=#dae8fc;strokeColor=#6c8ebf;exitX=0.5;exitY=0;exitDx=0;exitDy=0;" edge="1" parent="1" source="lZcb2U4ELOc24G8h8Ucq-13">
          <mxGeometry width="50" height="50" relative="1" as="geometry">
            <mxPoint x="310" y="630" as="sourcePoint" />
            <mxPoint x="250" y="605" as="targetPoint" />
          </mxGeometry>
        </mxCell>
        <mxCell id="lZcb2U4ELOc24G8h8Ucq-16" value="Appearance: a" style="rounded=0;whiteSpace=wrap;html=1;fillColor=#00CC00;strokeColor=#547442;fillOpacity=30;verticalAlign=top;align=left;spacing=0;spacingTop=-13;fontSize=6;fontColor=#547442;" vertex="1" parent="1">
          <mxGeometry x="40" y="220" width="160" height="40" as="geometry" />
        </mxCell>
        <mxCell id="lZcb2U4ELOc24G8h8Ucq-17" value="" style="endArrow=none;html=1;rounded=0;exitX=0;exitY=1;exitDx=0;exitDy=0;fillColor=#d5e8d4;strokeColor=#547442;labelBackgroundColor=none;fontColor=#547442;flowAnimation=0;shadow=0;fontSize=5;entryX=0.5;entryY=0;entryDx=0;entryDy=0;" edge="1" source="lZcb2U4ELOc24G8h8Ucq-16" target="lZcb2U4ELOc24G8h8Ucq-16" parent="1">
          <mxGeometry x="0.2647" y="5" width="50" height="50" relative="1" as="geometry">
            <mxPoint x="120" y="240" as="sourcePoint" />
            <mxPoint x="200" y="220" as="targetPoint" />
            <mxPoint as="offset" />
          </mxGeometry>
        </mxCell>
        <mxCell id="lZcb2U4ELOc24G8h8Ucq-18" value="" style="endArrow=none;html=1;rounded=0;exitX=0.5;exitY=0;exitDx=0;exitDy=0;fillColor=#d5e8d4;strokeColor=#547442;labelBackgroundColor=none;fontColor=#547442;flowAnimation=0;shadow=0;fontSize=5;" edge="1" source="lZcb2U4ELOc24G8h8Ucq-16" parent="1">
          <mxGeometry x="0.2647" y="5" width="50" height="50" relative="1" as="geometry">
            <mxPoint x="110" y="270" as="sourcePoint" />
            <mxPoint x="140" y="230" as="targetPoint" />
            <mxPoint as="offset" />
          </mxGeometry>
        </mxCell>
        <mxCell id="lZcb2U4ELOc24G8h8Ucq-19" value="Appearance: a" style="rounded=0;whiteSpace=wrap;html=1;fillColor=#dae8fc;strokeColor=#6c8ebf;fillOpacity=30;verticalAlign=top;align=left;spacing=0;spacingTop=-13;fontSize=6;" vertex="1" parent="1">
          <mxGeometry x="80" y="220" width="160" height="40" as="geometry" />
        </mxCell>
        <mxCell id="lZcb2U4ELOc24G8h8Ucq-20" value="" style="endArrow=none;html=1;rounded=0;fillColor=#dae8fc;strokeColor=#6c8ebf;labelBackgroundColor=none;fontColor=#547442;flowAnimation=0;shadow=0;fontSize=5;entryX=0.5;entryY=0;entryDx=0;entryDy=0;" edge="1" target="lZcb2U4ELOc24G8h8Ucq-19" parent="1">
          <mxGeometry x="0.2647" y="5" width="50" height="50" relative="1" as="geometry">
            <mxPoint x="140" y="230" as="sourcePoint" />
            <mxPoint x="240" y="220" as="targetPoint" />
            <mxPoint as="offset" />
          </mxGeometry>
        </mxCell>
        <mxCell id="lZcb2U4ELOc24G8h8Ucq-21" value="" style="endArrow=none;html=1;rounded=0;exitX=0.5;exitY=0;exitDx=0;exitDy=0;fillColor=#dae8fc;strokeColor=#6c8ebf;labelBackgroundColor=none;fontColor=#547442;flowAnimation=0;shadow=0;fontSize=5;entryX=1;entryY=1;entryDx=0;entryDy=0;" edge="1" source="lZcb2U4ELOc24G8h8Ucq-19" target="lZcb2U4ELOc24G8h8Ucq-19" parent="1">
          <mxGeometry x="0.2647" y="5" width="50" height="50" relative="1" as="geometry">
            <mxPoint x="150" y="270" as="sourcePoint" />
            <mxPoint x="230" y="230" as="targetPoint" />
            <mxPoint as="offset" />
          </mxGeometry>
        </mxCell>
        <mxCell id="lZcb2U4ELOc24G8h8Ucq-22" value="" style="rounded=0;whiteSpace=wrap;html=1;" vertex="1" parent="1">
          <mxGeometry x="600" y="200" width="200" height="40" as="geometry" />
        </mxCell>
        <mxCell id="lZcb2U4ELOc24G8h8Ucq-24" value="" style="rounded=0;whiteSpace=wrap;html=1;" vertex="1" parent="1">
          <mxGeometry x="600" y="340" width="200" height="40" as="geometry" />
        </mxCell>
        <mxCell id="lZcb2U4ELOc24G8h8Ucq-26" value="" style="endArrow=none;dashed=1;html=1;dashPattern=1 1;strokeWidth=1;rounded=0;exitX=0;exitY=0.5;exitDx=0;exitDy=0;entryX=1;entryY=0.5;entryDx=0;entryDy=0;strokeColor=#000000;opacity=50;" edge="1" parent="1">
          <mxGeometry width="50" height="50" relative="1" as="geometry">
            <mxPoint x="600" y="220" as="sourcePoint" />
            <mxPoint x="800" y="220" as="targetPoint" />
          </mxGeometry>
        </mxCell>
        <mxCell id="lZcb2U4ELOc24G8h8Ucq-27" value="" style="endArrow=none;dashed=1;html=1;dashPattern=1 1;strokeWidth=1;rounded=0;exitX=0;exitY=0.5;exitDx=0;exitDy=0;entryX=1;entryY=0.5;entryDx=0;entryDy=0;strokeColor=#000000;opacity=50;" edge="1" parent="1">
          <mxGeometry width="50" height="50" relative="1" as="geometry">
            <mxPoint x="600" y="360" as="sourcePoint" />
            <mxPoint x="800" y="360" as="targetPoint" />
          </mxGeometry>
        </mxCell>
        <mxCell id="lZcb2U4ELOc24G8h8Ucq-28" value="" style="endArrow=classic;html=1;rounded=0;entryX=0.75;entryY=0;entryDx=0;entryDy=0;endSize=2;labelBackgroundColor=none;fontSize=5;" edge="1" parent="1">
          <mxGeometry x="-0.6" y="16" width="50" height="50" relative="1" as="geometry">
            <mxPoint x="180" y="375" as="sourcePoint" />
            <mxPoint x="180.0000000000001" y="384.99999999999994" as="targetPoint" />
            <mxPoint as="offset" />
          </mxGeometry>
        </mxCell>
        <mxCell id="lZcb2U4ELOc24G8h8Ucq-29" value="" style="endArrow=classic;html=1;rounded=0;entryX=0.75;entryY=0;entryDx=0;entryDy=0;endSize=2;labelBackgroundColor=none;fontSize=5;" edge="1" parent="1">
          <mxGeometry x="-0.6" y="16" width="50" height="50" relative="1" as="geometry">
            <mxPoint x="240" y="410" as="sourcePoint" />
            <mxPoint x="240.0000000000001" y="399.99999999999994" as="targetPoint" />
            <mxPoint as="offset" />
          </mxGeometry>
        </mxCell>
        <mxCell id="lZcb2U4ELOc24G8h8Ucq-34" value="" style="rounded=0;whiteSpace=wrap;html=1;" vertex="1" parent="1">
          <mxGeometry x="600" y="440.15999999999997" width="200" height="40" as="geometry" />
        </mxCell>
        <mxCell id="lZcb2U4ELOc24G8h8Ucq-35" value="" style="endArrow=oval;html=1;rounded=0;exitX=0;exitY=1;exitDx=0;exitDy=0;fillColor=#d5e8d4;strokeColor=#000000;labelBackgroundColor=none;fontColor=#547442;flowAnimation=0;shadow=0;fontSize=5;endFill=1;endSize=3;startFill=1;startArrow=oval;startSize=3;" edge="1" parent="1">
          <mxGeometry x="-0.7" y="4" width="50" height="50" relative="1" as="geometry">
            <mxPoint x="600" y="480.15999999999997" as="sourcePoint" />
            <mxPoint x="700" y="455.15999999999997" as="targetPoint" />
            <mxPoint as="offset" />
          </mxGeometry>
        </mxCell>
        <mxCell id="lZcb2U4ELOc24G8h8Ucq-36" value="" style="endArrow=none;dashed=1;html=1;dashPattern=1 1;strokeWidth=1;rounded=0;exitX=0;exitY=0.5;exitDx=0;exitDy=0;entryX=1;entryY=0.5;entryDx=0;entryDy=0;strokeColor=#000000;opacity=50;" edge="1" parent="1">
          <mxGeometry width="50" height="50" relative="1" as="geometry">
            <mxPoint x="600" y="460.15999999999997" as="sourcePoint" />
            <mxPoint x="800" y="460.15999999999997" as="targetPoint" />
          </mxGeometry>
        </mxCell>
        <mxCell id="lZcb2U4ELOc24G8h8Ucq-39" value="" style="endArrow=classic;html=1;rounded=0;entryX=0.75;entryY=0;entryDx=0;entryDy=0;endSize=2;labelBackgroundColor=none;fontSize=5;" edge="1" parent="1">
          <mxGeometry x="-0.6" y="16" width="50" height="50" relative="1" as="geometry">
            <mxPoint x="699.88" y="445.15999999999997" as="sourcePoint" />
            <mxPoint x="699.8800000000001" y="455.15999999999997" as="targetPoint" />
            <mxPoint as="offset" />
          </mxGeometry>
        </mxCell>
        <mxCell id="lZcb2U4ELOc24G8h8Ucq-41" value="" style="endArrow=oval;html=1;rounded=0;fillColor=#d5e8d4;strokeColor=#000000;labelBackgroundColor=none;fontColor=#547442;flowAnimation=0;shadow=0;fontSize=5;endFill=1;endSize=3;startFill=1;startArrow=oval;startSize=3;entryX=1;entryY=0;entryDx=0;entryDy=0;" edge="1" parent="1" target="lZcb2U4ELOc24G8h8Ucq-34">
          <mxGeometry x="-0.7" y="4" width="50" height="50" relative="1" as="geometry">
            <mxPoint x="700" y="455.15999999999997" as="sourcePoint" />
            <mxPoint x="720" y="460.15999999999997" as="targetPoint" />
            <mxPoint as="offset" />
          </mxGeometry>
        </mxCell>
        <mxCell id="lZcb2U4ELOc24G8h8Ucq-43" value="" style="rounded=0;whiteSpace=wrap;html=1;" vertex="1" parent="1">
          <mxGeometry x="600" y="490.15999999999997" width="200" height="40" as="geometry" />
        </mxCell>
        <mxCell id="lZcb2U4ELOc24G8h8Ucq-44" value="" style="endArrow=oval;html=1;rounded=0;exitX=0;exitY=1;exitDx=0;exitDy=0;fillColor=#d5e8d4;strokeColor=#000000;labelBackgroundColor=none;fontColor=#547442;flowAnimation=0;shadow=0;fontSize=5;endFill=1;endSize=3;startFill=1;startArrow=oval;startSize=3;" edge="1" parent="1">
          <mxGeometry x="-0.7" y="4" width="50" height="50" relative="1" as="geometry">
            <mxPoint x="600" y="530.16" as="sourcePoint" />
            <mxPoint x="700" y="505.15999999999997" as="targetPoint" />
            <mxPoint as="offset" />
          </mxGeometry>
        </mxCell>
        <mxCell id="lZcb2U4ELOc24G8h8Ucq-45" value="" style="endArrow=none;dashed=1;html=1;dashPattern=1 1;strokeWidth=1;rounded=0;exitX=0;exitY=0.5;exitDx=0;exitDy=0;entryX=1;entryY=0.5;entryDx=0;entryDy=0;strokeColor=#000000;opacity=50;" edge="1" parent="1">
          <mxGeometry width="50" height="50" relative="1" as="geometry">
            <mxPoint x="600" y="510.15999999999997" as="sourcePoint" />
            <mxPoint x="800" y="510.15999999999997" as="targetPoint" />
          </mxGeometry>
        </mxCell>
        <mxCell id="lZcb2U4ELOc24G8h8Ucq-46" value="" style="endArrow=classic;html=1;rounded=0;entryX=0.75;entryY=0;entryDx=0;entryDy=0;endSize=2;labelBackgroundColor=none;fontSize=5;" edge="1" parent="1">
          <mxGeometry x="-0.6" y="16" width="50" height="50" relative="1" as="geometry">
            <mxPoint x="699.88" y="495.15999999999997" as="sourcePoint" />
            <mxPoint x="699.8800000000001" y="505.15999999999997" as="targetPoint" />
            <mxPoint as="offset" />
          </mxGeometry>
        </mxCell>
        <mxCell id="lZcb2U4ELOc24G8h8Ucq-47" value="" style="endArrow=classic;html=1;rounded=0;entryX=0.75;entryY=0;entryDx=0;entryDy=0;endSize=2;labelBackgroundColor=none;fontSize=5;" edge="1" parent="1">
          <mxGeometry x="-0.6" y="16" width="50" height="50" relative="1" as="geometry">
            <mxPoint x="720" y="500.15999999999997" as="sourcePoint" />
            <mxPoint x="720.0000000000001" y="510.15999999999997" as="targetPoint" />
            <mxPoint as="offset" />
          </mxGeometry>
        </mxCell>
        <mxCell id="lZcb2U4ELOc24G8h8Ucq-48" value="" style="endArrow=oval;html=1;rounded=0;fillColor=#d5e8d4;strokeColor=#000000;labelBackgroundColor=none;fontColor=#547442;flowAnimation=0;shadow=0;fontSize=5;endFill=1;endSize=3;startFill=1;startArrow=oval;startSize=3;" edge="1" parent="1">
          <mxGeometry x="-0.7" y="4" width="50" height="50" relative="1" as="geometry">
            <mxPoint x="700" y="505.15999999999997" as="sourcePoint" />
            <mxPoint x="720" y="510.15999999999997" as="targetPoint" />
            <mxPoint as="offset" />
          </mxGeometry>
        </mxCell>
        <mxCell id="lZcb2U4ELOc24G8h8Ucq-49" value="" style="endArrow=oval;html=1;rounded=0;fillColor=#d5e8d4;strokeColor=#000000;labelBackgroundColor=none;fontColor=#547442;flowAnimation=0;shadow=0;fontSize=5;endFill=1;endSize=3;startFill=1;startArrow=oval;startSize=3;entryX=1;entryY=0;entryDx=0;entryDy=0;" edge="1" target="lZcb2U4ELOc24G8h8Ucq-43" parent="1">
          <mxGeometry x="-0.7" y="4" width="50" height="50" relative="1" as="geometry">
            <mxPoint x="720" y="510.15999999999997" as="sourcePoint" />
            <mxPoint x="760" y="545.16" as="targetPoint" />
            <mxPoint as="offset" />
          </mxGeometry>
        </mxCell>
        <mxCell id="lZcb2U4ELOc24G8h8Ucq-51" value="" style="endArrow=oval;html=1;rounded=0;exitX=0;exitY=1;exitDx=0;exitDy=0;fillColor=#d5e8d4;strokeColor=#82b366;labelBackgroundColor=none;fontColor=#547442;flowAnimation=0;shadow=0;fontSize=5;endFill=1;endSize=3;startFill=1;startArrow=oval;startSize=3;" edge="1" parent="1">
          <mxGeometry x="-0.7" y="4" width="50" height="50" relative="1" as="geometry">
            <mxPoint x="600" y="380" as="sourcePoint" />
            <mxPoint x="760" y="340" as="targetPoint" />
            <mxPoint as="offset" />
          </mxGeometry>
        </mxCell>
        <mxCell id="lZcb2U4ELOc24G8h8Ucq-52" value="" style="rounded=0;whiteSpace=wrap;html=1;" vertex="1" parent="1">
          <mxGeometry x="820" y="440.15999999999997" width="300" height="40" as="geometry" />
        </mxCell>
        <mxCell id="lZcb2U4ELOc24G8h8Ucq-53" value="" style="endArrow=none;dashed=1;html=1;dashPattern=1 1;strokeWidth=1;rounded=0;entryX=1;entryY=0.5;entryDx=0;entryDy=0;strokeColor=#000000;opacity=50;" edge="1" parent="1">
          <mxGeometry width="50" height="50" relative="1" as="geometry">
            <mxPoint x="820" y="460.15999999999997" as="sourcePoint" />
            <mxPoint x="1120" y="460.15999999999997" as="targetPoint" />
          </mxGeometry>
        </mxCell>
        <mxCell id="lZcb2U4ELOc24G8h8Ucq-54" value="" style="endArrow=oval;html=1;rounded=0;exitX=0;exitY=1;exitDx=0;exitDy=0;fillColor=#d5e8d4;strokeColor=#82b366;startArrow=oval;startFill=1;endFill=1;endSize=3;startSize=3;" edge="1" parent="1">
          <mxGeometry width="50" height="50" relative="1" as="geometry">
            <mxPoint x="820" y="480.15999999999997" as="sourcePoint" />
            <mxPoint x="931" y="452.15999999999997" as="targetPoint" />
          </mxGeometry>
        </mxCell>
        <mxCell id="lZcb2U4ELOc24G8h8Ucq-55" value="" style="endArrow=oval;html=1;rounded=0;fillColor=#d5e8d4;strokeColor=#000000;startArrow=oval;startFill=1;endFill=1;endSize=3;startSize=3;" edge="1" parent="1">
          <mxGeometry width="50" height="50" relative="1" as="geometry">
            <mxPoint x="990" y="468.15999999999997" as="sourcePoint" />
            <mxPoint x="1030" y="458" as="targetPoint" />
            <Array as="points" />
          </mxGeometry>
        </mxCell>
        <mxCell id="lZcb2U4ELOc24G8h8Ucq-56" value="" style="endArrow=oval;html=1;rounded=0;strokeColor=#82b366;startArrow=oval;startFill=1;endFill=1;endSize=3;startSize=3;fillColor=#d5e8d4;" edge="1" parent="1">
          <mxGeometry width="50" height="50" relative="1" as="geometry">
            <mxPoint x="931" y="452.15999999999997" as="sourcePoint" />
            <mxPoint x="990" y="468.15999999999997" as="targetPoint" />
          </mxGeometry>
        </mxCell>
        <mxCell id="lZcb2U4ELOc24G8h8Ucq-60" value="" style="endArrow=classic;html=1;rounded=0;entryX=0.75;entryY=0;entryDx=0;entryDy=0;endSize=2;labelBackgroundColor=none;fontSize=5;" edge="1" parent="1">
          <mxGeometry x="-0.6" y="16" width="50" height="50" relative="1" as="geometry">
            <mxPoint x="1030" y="448.15999999999997" as="sourcePoint" />
            <mxPoint x="1030" y="458.15999999999997" as="targetPoint" />
            <mxPoint as="offset" />
          </mxGeometry>
        </mxCell>
        <mxCell id="lZcb2U4ELOc24G8h8Ucq-61" value="" style="rounded=0;whiteSpace=wrap;html=1;" vertex="1" parent="1">
          <mxGeometry x="820" y="490.15999999999997" width="300" height="40" as="geometry" />
        </mxCell>
        <mxCell id="lZcb2U4ELOc24G8h8Ucq-62" value="" style="endArrow=none;dashed=1;html=1;dashPattern=1 1;strokeWidth=1;rounded=0;entryX=1;entryY=0.5;entryDx=0;entryDy=0;strokeColor=#000000;opacity=50;" edge="1" parent="1">
          <mxGeometry width="50" height="50" relative="1" as="geometry">
            <mxPoint x="820" y="510.15999999999997" as="sourcePoint" />
            <mxPoint x="1120" y="510.15999999999997" as="targetPoint" />
          </mxGeometry>
        </mxCell>
        <mxCell id="lZcb2U4ELOc24G8h8Ucq-63" value="" style="endArrow=oval;html=1;rounded=0;exitX=0;exitY=1;exitDx=0;exitDy=0;fillColor=#d5e8d4;strokeColor=#82b366;startArrow=oval;startFill=1;endFill=1;endSize=3;startSize=3;" edge="1" parent="1">
          <mxGeometry width="50" height="50" relative="1" as="geometry">
            <mxPoint x="820" y="530.16" as="sourcePoint" />
            <mxPoint x="931" y="502.15999999999997" as="targetPoint" />
          </mxGeometry>
        </mxCell>
        <mxCell id="lZcb2U4ELOc24G8h8Ucq-65" value="" style="endArrow=oval;html=1;rounded=0;strokeColor=#82b366;startArrow=oval;startFill=1;endFill=1;endSize=3;startSize=3;fillColor=#d5e8d4;" edge="1" parent="1">
          <mxGeometry width="50" height="50" relative="1" as="geometry">
            <mxPoint x="931" y="502.15999999999997" as="sourcePoint" />
            <mxPoint x="990" y="518.16" as="targetPoint" />
          </mxGeometry>
        </mxCell>
        <mxCell id="lZcb2U4ELOc24G8h8Ucq-67" value="" style="endArrow=oval;html=1;rounded=0;fillColor=#d5e8d4;strokeColor=#000000;labelBackgroundColor=none;fontColor=#547442;flowAnimation=0;shadow=0;fontSize=5;endFill=1;endSize=3;startFill=0;startArrow=none;startSize=3;entryX=1;entryY=0;entryDx=0;entryDy=0;" edge="1" parent="1">
          <mxGeometry x="-0.7" y="4" width="50" height="50" relative="1" as="geometry">
            <mxPoint x="1040" y="510" as="sourcePoint" />
            <mxPoint x="1120" y="490.15999999999997" as="targetPoint" />
            <mxPoint as="offset" />
          </mxGeometry>
        </mxCell>
        <mxCell id="lZcb2U4ELOc24G8h8Ucq-68" value="" style="endArrow=classic;html=1;rounded=0;entryX=0.75;entryY=0;entryDx=0;entryDy=0;endSize=2;labelBackgroundColor=none;fontSize=5;" edge="1" parent="1">
          <mxGeometry x="-0.6" y="16" width="50" height="50" relative="1" as="geometry">
            <mxPoint x="1040" y="500" as="sourcePoint" />
            <mxPoint x="1040" y="510" as="targetPoint" />
            <mxPoint as="offset" />
          </mxGeometry>
        </mxCell>
        <mxCell id="lZcb2U4ELOc24G8h8Ucq-69" value="" style="endArrow=oval;html=1;rounded=0;fillColor=#d5e8d4;strokeColor=#000000;labelBackgroundColor=none;fontColor=#547442;flowAnimation=0;shadow=0;fontSize=5;endFill=1;endSize=3;startFill=0;startArrow=none;startSize=3;" edge="1" parent="1">
          <mxGeometry x="-0.7" y="4" width="50" height="50" relative="1" as="geometry">
            <mxPoint x="1030" y="508" as="sourcePoint" />
            <mxPoint x="1040" y="510" as="targetPoint" />
            <mxPoint as="offset" />
          </mxGeometry>
        </mxCell>
        <mxCell id="lZcb2U4ELOc24G8h8Ucq-64" value="" style="endArrow=oval;html=1;rounded=0;fillColor=#d5e8d4;strokeColor=#82b366;startArrow=oval;startFill=1;endFill=1;endSize=3;startSize=3;" edge="1" parent="1">
          <mxGeometry width="50" height="50" relative="1" as="geometry">
            <mxPoint x="990" y="518.16" as="sourcePoint" />
            <mxPoint x="1030" y="508" as="targetPoint" />
          </mxGeometry>
        </mxCell>
        <mxCell id="lZcb2U4ELOc24G8h8Ucq-66" value="" style="endArrow=classic;html=1;rounded=0;entryX=0.75;entryY=0;entryDx=0;entryDy=0;endSize=2;labelBackgroundColor=none;fontSize=5;" edge="1" parent="1">
          <mxGeometry x="-0.6" y="16" width="50" height="50" relative="1" as="geometry">
            <mxPoint x="1030" y="498.15999999999997" as="sourcePoint" />
            <mxPoint x="1030" y="508.15999999999997" as="targetPoint" />
            <mxPoint as="offset" />
          </mxGeometry>
        </mxCell>
        <mxCell id="lZcb2U4ELOc24G8h8Ucq-70" value="" style="rounded=0;whiteSpace=wrap;html=1;" vertex="1" parent="1">
          <mxGeometry x="820" y="340.15999999999997" width="300" height="40" as="geometry" />
        </mxCell>
        <mxCell id="lZcb2U4ELOc24G8h8Ucq-71" value="" style="endArrow=none;dashed=1;html=1;dashPattern=1 1;strokeWidth=1;rounded=0;entryX=1;entryY=0.5;entryDx=0;entryDy=0;strokeColor=#000000;opacity=50;" edge="1" parent="1">
          <mxGeometry width="50" height="50" relative="1" as="geometry">
            <mxPoint x="820" y="360.15999999999997" as="sourcePoint" />
            <mxPoint x="1120" y="360.15999999999997" as="targetPoint" />
          </mxGeometry>
        </mxCell>
        <mxCell id="lZcb2U4ELOc24G8h8Ucq-72" value="" style="endArrow=oval;html=1;rounded=0;exitX=0;exitY=1;exitDx=0;exitDy=0;fillColor=#d5e8d4;strokeColor=#82b366;startArrow=oval;startFill=1;endFill=1;endSize=3;startSize=3;" edge="1" parent="1">
          <mxGeometry width="50" height="50" relative="1" as="geometry">
            <mxPoint x="820" y="380.15999999999997" as="sourcePoint" />
            <mxPoint x="931" y="352.15999999999997" as="targetPoint" />
          </mxGeometry>
        </mxCell>
        <mxCell id="lZcb2U4ELOc24G8h8Ucq-73" value="" style="endArrow=oval;html=1;rounded=0;entryX=0.933;entryY=-0.004;entryDx=0;entryDy=0;fillColor=#d5e8d4;strokeColor=#82b366;startArrow=oval;startFill=1;endFill=1;endSize=3;startSize=3;entryPerimeter=0;" edge="1" target="lZcb2U4ELOc24G8h8Ucq-70" parent="1">
          <mxGeometry width="50" height="50" relative="1" as="geometry">
            <mxPoint x="990" y="368.15999999999997" as="sourcePoint" />
            <mxPoint x="1100" y="340.15999999999997" as="targetPoint" />
          </mxGeometry>
        </mxCell>
        <mxCell id="lZcb2U4ELOc24G8h8Ucq-74" value="" style="endArrow=oval;html=1;rounded=0;strokeColor=#82b366;startArrow=oval;startFill=1;endFill=1;endSize=3;startSize=3;fillColor=#d5e8d4;" edge="1" parent="1">
          <mxGeometry width="50" height="50" relative="1" as="geometry">
            <mxPoint x="931" y="352.15999999999997" as="sourcePoint" />
            <mxPoint x="990" y="368.15999999999997" as="targetPoint" />
          </mxGeometry>
        </mxCell>
        <mxCell id="lZcb2U4ELOc24G8h8Ucq-103" value="" style="rounded=0;whiteSpace=wrap;html=1;" vertex="1" parent="1">
          <mxGeometry x="600" y="390" width="200" height="40" as="geometry" />
        </mxCell>
        <mxCell id="lZcb2U4ELOc24G8h8Ucq-104" value="" style="endArrow=none;dashed=1;html=1;dashPattern=1 1;strokeWidth=1;rounded=0;exitX=0;exitY=0.5;exitDx=0;exitDy=0;entryX=1;entryY=0.5;entryDx=0;entryDy=0;strokeColor=#000000;opacity=50;" edge="1" parent="1">
          <mxGeometry width="50" height="50" relative="1" as="geometry">
            <mxPoint x="600" y="410" as="sourcePoint" />
            <mxPoint x="800" y="410" as="targetPoint" />
          </mxGeometry>
        </mxCell>
        <mxCell id="lZcb2U4ELOc24G8h8Ucq-105" value="" style="endArrow=oval;html=1;rounded=0;exitX=0;exitY=1;exitDx=0;exitDy=0;fillColor=#d5e8d4;strokeColor=#000000;labelBackgroundColor=none;fontColor=#547442;flowAnimation=0;shadow=0;fontSize=5;endFill=1;endSize=3;startFill=1;startArrow=oval;startSize=3;entryX=1;entryY=0;entryDx=0;entryDy=0;" edge="1" target="lZcb2U4ELOc24G8h8Ucq-103" parent="1">
          <mxGeometry x="-0.7" y="4" width="50" height="50" relative="1" as="geometry">
            <mxPoint x="600" y="430" as="sourcePoint" />
            <mxPoint x="700" y="405" as="targetPoint" />
            <mxPoint as="offset" />
          </mxGeometry>
        </mxCell>
        <mxCell id="lZcb2U4ELOc24G8h8Ucq-106" value="" style="rounded=0;whiteSpace=wrap;html=1;" vertex="1" parent="1">
          <mxGeometry x="820" y="390.15999999999997" width="300" height="40" as="geometry" />
        </mxCell>
        <mxCell id="lZcb2U4ELOc24G8h8Ucq-107" value="" style="endArrow=none;dashed=1;html=1;dashPattern=1 1;strokeWidth=1;rounded=0;entryX=1;entryY=0.5;entryDx=0;entryDy=0;strokeColor=#000000;opacity=50;" edge="1" parent="1">
          <mxGeometry width="50" height="50" relative="1" as="geometry">
            <mxPoint x="820" y="410.15999999999997" as="sourcePoint" />
            <mxPoint x="1120" y="410.15999999999997" as="targetPoint" />
          </mxGeometry>
        </mxCell>
        <mxCell id="lZcb2U4ELOc24G8h8Ucq-108" value="" style="endArrow=oval;html=1;rounded=0;exitX=0;exitY=1;exitDx=0;exitDy=0;fillColor=#d5e8d4;strokeColor=#82b366;startArrow=oval;startFill=1;endFill=1;endSize=3;startSize=3;" edge="1" parent="1">
          <mxGeometry width="50" height="50" relative="1" as="geometry">
            <mxPoint x="820" y="430.15999999999997" as="sourcePoint" />
            <mxPoint x="931" y="402.15999999999997" as="targetPoint" />
          </mxGeometry>
        </mxCell>
        <mxCell id="lZcb2U4ELOc24G8h8Ucq-110" value="" style="endArrow=oval;html=1;rounded=0;strokeColor=#82b366;startArrow=oval;startFill=1;endFill=1;endSize=3;startSize=3;fillColor=#d5e8d4;" edge="1" parent="1">
          <mxGeometry width="50" height="50" relative="1" as="geometry">
            <mxPoint x="931" y="402.15999999999997" as="sourcePoint" />
            <mxPoint x="990" y="418.15999999999997" as="targetPoint" />
          </mxGeometry>
        </mxCell>
        <mxCell id="lZcb2U4ELOc24G8h8Ucq-112" value="" style="endArrow=oval;html=1;rounded=0;fillColor=#d5e8d4;strokeColor=#000000;startArrow=oval;startFill=1;endFill=1;endSize=3;startSize=3;entryX=1;entryY=0;entryDx=0;entryDy=0;" edge="1" parent="1" target="lZcb2U4ELOc24G8h8Ucq-106">
          <mxGeometry width="50" height="50" relative="1" as="geometry">
            <mxPoint x="990" y="418" as="sourcePoint" />
            <mxPoint x="1100" y="390" as="targetPoint" />
          </mxGeometry>
        </mxCell>
        <mxCell id="lZcb2U4ELOc24G8h8Ucq-113" value="" style="endArrow=oval;html=1;rounded=0;fillColor=#d5e8d4;strokeColor=#000000;startArrow=oval;startFill=1;endFill=1;endSize=3;startSize=3;entryX=1;entryY=0;entryDx=0;entryDy=0;" edge="1" parent="1" target="lZcb2U4ELOc24G8h8Ucq-52">
          <mxGeometry width="50" height="50" relative="1" as="geometry">
            <mxPoint x="1030" y="458" as="sourcePoint" />
            <mxPoint x="1100" y="440" as="targetPoint" />
            <Array as="points" />
          </mxGeometry>
        </mxCell>
      </root>
    </mxGraphModel>
  </diagram>
</mxfile>
